<?xml version="1.0" encoding="UTF-8"?>
<!DOCTYPE svg PUBLIC "-//W3C//DTD SVG 1.1//EN" "http://www.w3.org/Graphics/SVG/1.1/DTD/svg11.dtd">
<!-- Creator: CorelDRAW 2021 (64-Bit) -->
<svg xmlns="http://www.w3.org/2000/svg" xml:space="preserve" width="266.644mm" height="43.5755mm" version="1.1" style="shape-rendering:geometricPrecision; text-rendering:geometricPrecision; image-rendering:optimizeQuality; fill-rule:evenodd; clip-rule:evenodd"
viewBox="0 0 147448.72 24096.34"
 xmlns:xlink="http://www.w3.org/1999/xlink"
 xmlns:xodm="http://www.corel.com/coreldraw/odm/2003">
 <defs>
  <style type="text/css">
   <![CDATA[
    .fil0 {fill:#6666FF;fill-rule:nonzero}
   ]]>
  </style>
 </defs>
 <g id="Layer_x0020_1">
  <metadata id="CorelCorpID_0Corel-Layer"/>
  <g id="_1671266437792">
   <path class="fil0" d="M112035.05 19723.88c0,-3641.64 2504.77,-6696.52 5885.74,-7539.21 634.82,-4474.71 4480.29,-7916.06 9130.79,-7916.06 3279.55,0 6159.14,1712.08 7794.63,4291.06 818.8,-255.59 1689.68,-393.17 2592.81,-393.17 3838.28,0 7095.55,2486.36 8250.12,5936.29 348.21,-55.63 704.77,-85.44 1068.74,-85.44 233.25,0 463.67,11.89 690.84,35l0 10043.98 -35749.05 0c167.61,-1701.63 335.38,-3265.62 335.38,-4372.46z"/>
   <path class="fil0" d="M70072.46 11229.29c1072.12,-6421.03 5561.14,-11235.82 10928.41,-11225.2 3962.65,7.74 7437.02,2644.9 9405.57,6610.92 990.05,-390.57 2042.7,-599.87 3133.95,-597.66 4638.06,9.07 8566.31,3836.57 9950.8,9139.53 420.98,-84.61 852.03,-129.4 1291.7,-128.46 4150.16,8.18 7567.74,3963.31 8061,9067.92l-42771.44 0 0 -12867.05z"/>
  </g>
  <g id="_1671266448304">
   <path class="fil0" d="M35413.66 19719.9c0,-3641.7 -2504.77,-6696.52 -5885.74,-7539.21 -634.82,-4474.71 -4480.29,-7916.12 -9130.85,-7916.12 -3279.5,0 -6159.08,1712.08 -7794.57,4291.12 -818.8,-255.64 -1689.68,-393.22 -2592.81,-393.22 -3838.34,0 -7095.55,2486.36 -8250.12,5936.29 -348.21,-55.63 -704.77,-85.38 -1068.74,-85.38 -233.25,0 -463.73,11.83 -690.84,35l0 10043.92 35749.05 0c-167.61,-1701.57 -335.38,-3265.56 -335.38,-4372.41z"/>
   <path class="fil0" d="M77376.26 11225.25c-1072.12,-6420.97 -5561.2,-11235.82 -10928.41,-11225.2 -3962.65,7.74 -7437.02,2644.9 -9405.57,6610.92 -990.05,-390.51 -2042.7,-599.87 -3133.95,-597.6 -4638.06,9.07 -8566.31,3836.51 -9950.8,9139.47 -420.98,-84.61 -852.03,-129.34 -1291.7,-128.46 -4150.16,8.18 -7567.74,3963.31 -8061,9067.92l42771.44 0 0 -12867.05z"/>
  </g>
 </g>
</svg>
