<?xml version="1.0" encoding="UTF-8"?>
<!DOCTYPE svg PUBLIC "-//W3C//DTD SVG 1.1//EN" "http://www.w3.org/Graphics/SVG/1.1/DTD/svg11.dtd">
<!-- Creator: CorelDRAW 2021 (64-Bit) -->
<svg xmlns="http://www.w3.org/2000/svg" xml:space="preserve" width="266.644mm" height="63.2123mm" version="1.1" style="shape-rendering:geometricPrecision; text-rendering:geometricPrecision; image-rendering:optimizeQuality; fill-rule:evenodd; clip-rule:evenodd"
viewBox="0 0 180054.45 42684.79"
 xmlns:xlink="http://www.w3.org/1999/xlink"
 xmlns:xodm="http://www.corel.com/coreldraw/odm/2003">
 <defs>
  <style type="text/css">
   <![CDATA[
    .fil2 {fill:#000066;fill-rule:nonzero}
    .fil1 {fill:#6666FF;fill-rule:nonzero}
    .fil0 {fill:#9999FF;fill-rule:nonzero}
   ]]>
  </style>
 </defs>
 <g id="Layer_x0020_1">
  <metadata id="CorelCorpID_0Corel-Layer"/>
  <g id="_1670892988768">
   <path class="fil0" d="M45127.41 27677.12c513.27,-5476.43 -2823.27,-10423.53 -7788.93,-12167.32 -323.99,-6818.51 -5622.09,-12535.68 -12615.7,-13190.95 -4931.97,-462.22 -9503.89,1706.65 -12326.75,5354.55 -1195.35,-499.56 -2485.57,-829.22 -3843.72,-956.44 -3140.03,-294.28 -6125.02,542.44 -8552.31,2175.49l0 26345.1 32778.11 3071.36c90.69,8.51 179.08,7.83 267.2,2.77 6163.17,213.11 11499.35,-4414.11 12082.1,-10634.55z"/>
   <path class="fil0" d="M94486.68 12267.4c-1833.67,-6502.22 -7505.25,-11524.74 -14635.27,-12192.85 -5959.51,-558.37 -11483.62,2062.31 -14894.77,6470.28 -1444.45,-603.68 -3003.29,-1002.09 -4644.44,-1155.78 -6974.9,-653.65 -13317.16,3309.79 -16002.26,9382.14 -623.4,-160.44 -1266.32,-275.1 -1927.6,-337.16 -6762.33,-633.66 -12759.26,4335.04 -13392.99,11098.05 -633.46,6762.87 4335.78,12758.51 11098.05,13392.25 75.29,7.02 150.11,9.86 225.47,15.4 37.54,5.74 74.48,12.76 112.63,16.27l39740.86 3723.86 14320.32 0 0 -30412.47z"/>
  </g>
  <g id="_1670892993520">
   <path class="fil1" d="M45872.49 34707.12c-752.17,-5063.78 2100.13,-9828.96 6627.35,-11698.96 -41.26,-6353.19 4595.29,-11932.53 11061.79,-12892.96 4560.37,-677.29 8918.03,1108.78 11724.96,4357.05 1085.75,-524.2 2268.27,-895.4 3524.05,-1081.9 5337.33,-792.55 10380.18,1991.95 12697.74,6550.77 472.95,-149.3 962.58,-264.3 1468.62,-339.32 507.86,-75.43 1012.15,-108.45 1509.68,-102.84l0 19032.63 -27933.52 4148.26 -15128.21 0c-2890.12,-1587.27 -5030.69,-4459.15 -5552.47,-7972.74z"/>
   <path class="fil1" d="M-0 20400.64c2019.77,-4961.07 6532.14,-8757.8 12215.13,-9601.8 5510.2,-818.28 10775.88,1339.79 14167.31,5264.87 1311.9,-633.6 2740.95,-1081.97 4258.4,-1307.3 6449.15,-957.86 12542.56,2406.97 15342.94,7915.48 571.47,-180.56 1163.14,-319.33 1774.59,-410.22 6252.65,-928.55 12075.42,3387.92 13004.11,9641.24 633.46,4265.02 -1174.08,8328.94 -4371.17,10776.96l-56391.3 0 0 -22279.22z"/>
  </g>
  <g id="_1670892972112">
   <path class="fil0" d="M134927.04 27682.05c-513.27,-5476.43 2823.27,-10423.53 7788.93,-12167.32 323.99,-6818.58 5622.09,-12535.68 12615.7,-13191.02 4931.97,-462.15 9503.89,1706.72 12326.75,5354.62 1195.35,-499.63 2485.57,-829.22 3843.72,-956.44 3140.03,-294.28 6124.95,542.44 8552.31,2175.49l0 26345.03 -32778.11 3071.42c-90.69,8.44 -179.08,7.83 -267.27,2.7 -6163.11,213.11 -11499.29,-4414.05 -12082.04,-10634.48z"/>
   <path class="fil0" d="M85567.77 12272.26c1833.67,-6502.22 7505.25,-11524.68 14635.27,-12192.78 5959.51,-558.37 11483.62,2062.31 14894.77,6470.28 1444.38,-603.68 3003.29,-1002.15 4644.44,-1155.84 6974.9,-653.58 13317.16,3309.79 16002.26,9382.21 623.4,-160.44 1266.32,-275.17 1927.6,-337.23 6762.33,-633.6 12759.19,4335.11 13392.99,11098.11 633.46,6762.8 -4335.78,12758.51 -11098.05,13392.25 -75.29,7.02 -150.11,9.79 -225.47,15.4 -37.54,5.74 -74.48,12.76 -112.7,16.21l-39740.79 3723.93 -14320.32 0 0 -30412.53z"/>
  </g>
  <g id="_1670892974128">
   <path class="fil1" d="M134181.96 34711.99c752.17,-5063.71 -2100.13,-9828.89 -6627.35,-11698.89 41.26,-6353.19 -4595.35,-11932.6 -11061.79,-12893.03 -4560.37,-677.22 -8918.1,1108.85 -11724.96,4357.12 -1085.75,-524.2 -2268.27,-895.46 -3524.05,-1081.9 -5337.33,-792.62 -10380.18,1991.95 -12697.74,6550.77 -472.95,-149.3 -962.58,-264.3 -1468.62,-339.39 -507.86,-75.43 -1012.15,-108.38 -1509.68,-102.77l0 19032.56 27933.52 4148.33 15128.21 0c2890.05,-1587.34 5030.63,-4459.15 5552.47,-7972.8z"/>
   <path class="fil1" d="M180054.45 20405.5c-2019.77,-4961.01 -6532.2,-8757.73 -12215.13,-9601.74 -5510.2,-818.28 -10775.88,1339.79 -14167.38,5264.87 -1311.83,-633.6 -2740.88,-1082.04 -4258.33,-1307.37 -6449.15,-957.79 -12542.56,2407.03 -15342.94,7915.54 -571.47,-180.56 -1163.14,-319.4 -1774.59,-410.22 -6252.65,-928.55 -12075.49,3387.85 -13004.17,9641.17 -633.39,4265.08 1174.14,8329 4371.23,10777.03l56391.3 0 0 -22279.29z"/>
  </g>
  <g id="_1670892977200">
   <path class="fil2" d="M136809.67 37345.44c0,-4446.93 3058.66,-8177.34 7187.27,-9206.37 775.2,-5464.21 5471.03,-9666.56 11149.91,-9666.56 4004.77,0 7521.12,2090.68 9518.27,5239.96 999.86,-312.11 2063.33,-480.11 3166.16,-480.11 4687.05,0 8664.61,3036.18 10074.49,7248.99 425.21,-67.93 860.62,-104.33 1305.08,-104.33 284.83,0 566.21,14.52 843.6,42.74l0 12265.03 -43654.33 0c204.67,-2077.91 409.55,-3987.75 409.55,-5339.35z"/>
   <path class="fil2" d="M85567.77 26972.42c1309.2,-7840.93 6790.9,-13720.42 13345.04,-13707.46 4838.92,9.45 9081.58,3229.77 11485.44,8072.81 1208.99,-476.94 2494.41,-732.52 3826.97,-729.82 5663.68,11.07 10460.6,4684.96 12151.25,11160.58 514.08,-103.31 1040.44,-158.01 1577.34,-156.86 5067.9,9.99 9241.21,4839.73 9843.55,11073.13l-52229.6 0 0 -15712.37z"/>
  </g>
  <g id="_1671370134144">
   <path class="fil2" d="M43244.78 37340.57c0,-4447 -3058.66,-8177.34 -7187.27,-9206.37 -775.2,-5464.21 -5471.03,-9666.63 -11149.97,-9666.63 -4004.7,0 -7521.06,2090.68 -9518.21,5240.02 -999.86,-312.17 -2063.33,-480.18 -3166.16,-480.18 -4687.12,0 -8664.61,3036.18 -10074.49,7248.99 -425.21,-67.93 -860.62,-104.26 -1305.08,-104.26 -284.83,0 -566.27,14.45 -843.6,42.74l0 12264.97 43654.33 0c-204.67,-2077.85 -409.55,-3987.69 -409.55,-5339.29z"/>
   <path class="fil2" d="M94486.68 26967.49c-1309.2,-7840.86 -6790.96,-13720.42 -13345.04,-13707.46 -4838.92,9.45 -9081.58,3229.77 -11485.44,8072.81 -1208.99,-476.87 -2494.41,-732.52 -3826.97,-729.75 -5663.68,11.07 -10460.6,4684.89 -12151.25,11160.51 -514.08,-103.31 -1040.44,-157.94 -1577.34,-156.86 -5067.9,9.99 -9241.21,4839.73 -9843.55,11073.13l52229.6 0 0 -15712.37z"/>
  </g>
 </g>
</svg>
