<?xml version="1.0" encoding="UTF-8"?>
<!DOCTYPE svg PUBLIC "-//W3C//DTD SVG 1.1//EN" "http://www.w3.org/Graphics/SVG/1.1/DTD/svg11.dtd">
<!-- Creator: CorelDRAW 2021 (64-Bit) -->
<svg xmlns="http://www.w3.org/2000/svg" xml:space="preserve" width="27.0545mm" height="59.3937mm" version="1.1" style="shape-rendering:geometricPrecision; text-rendering:geometricPrecision; image-rendering:optimizeQuality; fill-rule:evenodd; clip-rule:evenodd"
viewBox="0 0 100.27 220.12"
 xmlns:xlink="http://www.w3.org/1999/xlink"
 xmlns:xodm="http://www.corel.com/coreldraw/odm/2003">
 <defs>
  <style type="text/css">
   <![CDATA[
    .fil4 {fill:#181823;fill-rule:nonzero}
    .fil1 {fill:#1C1D2D;fill-rule:nonzero}
    .fil6 {fill:#3B3B3B;fill-rule:nonzero}
    .fil0 {fill:gray;fill-rule:nonzero}
    .fil7 {fill:#999999;fill-rule:nonzero}
    .fil2 {fill:#C64F60;fill-rule:nonzero}
    .fil5 {fill:#E6E6E6;fill-rule:nonzero}
    .fil3 {fill:#FDD841;fill-rule:nonzero}
   ]]>
  </style>
 </defs>
 <g id="Layer_x0020_1">
  <metadata id="CorelCorpID_0Corel-Layer"/>
  <g id="_1671264575552">
   <g>
    <path class="fil0" d="M76.85 35.67c-4.12,0 -8.23,24.77 -8.23,24.77 0,24.71 0,60.24 0,60.24l8.23 0 8.23 0c0,0 0,-35.53 0,-60.24 0,0 -4.36,-24.77 -8.23,-24.77z"/>
   </g>
   <g>
    <polygon class="fil1" points="85.07,68.02 68.62,68.02 68.62,66.33 85.07,66.33 "/>
   </g>
   <g>
    <polygon class="fil1" points="85.07,65.35 68.62,65.35 68.62,63.66 85.07,63.66 "/>
   </g>
   <g>
    <polygon class="fil1" points="85.07,111.19 68.62,111.19 68.62,109.51 85.07,109.51 "/>
   </g>
   <g>
    <polygon class="fil1" points="79.03,77.86 74.66,77.86 74.66,74.23 79.03,74.23 "/>
   </g>
  </g>
  <g id="_1671264580016">
   <g>
    <path class="fil0" d="M23.42 35.67c-4.12,0 -8.23,24.77 -8.23,24.77 0,24.71 0,60.24 0,60.24l8.23 0 8.23 0c0,0 0,-35.53 0,-60.24 0,0 -4.36,-24.77 -8.23,-24.77z"/>
   </g>
   <g>
    <polygon class="fil1" points="31.64,68.02 15.19,68.02 15.19,66.33 31.64,66.33 "/>
   </g>
   <g>
    <polygon class="fil1" points="31.64,65.35 15.19,65.35 15.19,63.66 31.64,63.66 "/>
   </g>
   <g>
    <polygon class="fil1" points="31.64,111.19 15.19,111.19 15.19,109.51 31.64,109.51 "/>
   </g>
   <g>
    <polygon class="fil1" points="25.6,77.86 21.24,77.86 21.24,74.23 25.6,74.23 "/>
   </g>
  </g>
  <g id="_1671264583808">
   <g>
    <path class="fil2" d="M50.13 0c-2.51,0 -18.49,9.87 -18.49,38.85 0,28.98 0,70.66 0,70.66l18.49 0 18.49 0c0,0 0,-41.67 0,-70.66 0,-28.98 -15.98,-38.85 -18.49,-38.85z"/>
   </g>
  </g>
  <g id="_1671264582320">
   <polygon class="fil3" points="63.74,220.12 36.53,220.12 36.53,133.07 63.74,133.07 "/>
  </g>
  <g id="_1671264582704">
   <polygon class="fil4" points="68.62,43.42 31.64,43.42 31.64,41.68 68.62,41.68 "/>
  </g>
  <g id="_1671264616784">
   <path class="fil5" d="M72.38 100.22c-5.64,-8.47 -9.4,-42.57 -13.16,-59.52 -0.32,-1.42 -0.64,-3.29 -0.98,-3.29l-16.21 0c-0.33,0 -0.66,1.63 -0.98,3.06 -3.76,16.95 -7.52,51.68 -13.16,60.15 -4.86,7.29 -22.24,19.48 -26.78,30.11l98.05 0c-4.55,-10.63 -21.93,-23.22 -26.78,-30.51z"/>
  </g>
  <g id="_1671264614816">
   <path class="fil6" d="M50.17 21.18c0,0 -4.51,0.87 -8.15,16.22l16.21 0c-3.64,-15.36 -8.07,-16.22 -8.07,-16.22z"/>
  </g>
  <g id="_1671264618128">
   <path class="fil6" d="M1.11 130.73c-0.73,2.36 -1.15,3.51 -1.1,4.96l34.78 8.04 15.35 0 15.35 0 34.78 -8.04c0.04,-1.45 -0.37,-2.59 -1.1,-4.96l-98.05 0z"/>
  </g>
  <g id="_1671264617792">
   <g>
    <path class="fil7" d="M55.14 144.87c0,0 -1.19,-16.77 3.09,-16.77 4.29,0 7.87,4.02 9.75,18.61 0,0 -6.89,3.86 -12.85,-1.84z"/>
   </g>
   <g>
    <path class="fil7" d="M45.9 144.87c0,0 1.19,-16.77 -3.1,-16.77 -4.29,0 -7.87,4.02 -9.75,18.61 0,0 6.89,3.86 12.85,-1.84z"/>
   </g>
  </g>
  <polygon class="fil2" points="57.63,48.05 42.63,48.05 42.63,46.31 57.63,46.31 "/>
  <polygon class="fil2" points="50.13,130.73 50.13,60.52 51,60.52 51,130.73 "/>
 </g>
</svg>
